<?xml version="1.0" encoding="UTF-8"?>
<svg id="Layer_2" data-name="Layer 2" xmlns="http://www.w3.org/2000/svg" viewBox="0 0 1221.05 364.67">
  <defs>
    <style>
      .cls-1 {
        fill: #16191c;
      }

      .cls-2 {
        fill: #003fef;
      }
    </style>
  </defs>
  <g id="Layer_1-2" data-name="Layer 1">
    <g>
      <path class="cls-1" d="M253.41,184.57c0-11.65,2.02-23.49,6.08-35.53,4.05-12.03,10.57-23.05,19.57-33.06,8.99-10,20.52-18.17,34.58-24.51,14.06-6.33,30.97-9.5,50.73-9.5s36.98,3.17,50.92,9.5c13.93,6.33,25.39,14.5,34.39,24.51,8.99,10.01,15.51,21.09,19.57,33.25,4.05,12.16,6.08,24.07,6.08,35.72,0,14.44-2.92,27.68-8.74,39.71-5.83,12.04-13.81,22.29-23.94,30.78-10.13,8.49-21.91,15.07-35.34,19.76-13.43,4.69-27.74,7.03-42.94,7.03s-29.13-2.34-42.56-7.03c-13.43-4.69-25.21-11.33-35.34-19.95-10.13-8.61-18.18-18.93-24.13-30.97-5.96-12.03-8.93-25.27-8.93-39.71ZM364.36,219.52c6.58,0,12.47-.95,17.67-2.85,5.19-1.9,9.62-4.56,13.3-7.98,3.67-3.42,6.46-7.34,8.36-11.78,1.9-4.43,2.85-9.31,2.85-14.63s-.95-9.94-2.85-14.63c-1.9-4.69-4.69-8.74-8.36-12.16-3.68-3.42-8.11-6.14-13.3-8.17-5.2-2.02-11.08-3.04-17.67-3.04s-12.48,1.02-17.67,3.04c-5.19,2.03-9.63,4.75-13.3,8.17-3.67,3.42-6.46,7.41-8.36,11.97-1.9,4.56-2.85,9.5-2.85,14.82s.95,9.88,2.85,14.44c1.9,4.56,4.69,8.55,8.36,11.97,3.67,3.42,8.1,6.08,13.3,7.98,5.19,1.9,11.08,2.85,17.67,2.85Z"/>
      <path class="cls-1" d="M488.19,364.67V85.78h66.88v33.44c2.28-5.06,5.7-9.88,10.26-14.44,4.56-4.56,9.81-8.55,15.77-11.97,5.95-3.42,12.22-6.14,18.81-8.17,6.58-2.02,12.92-3.04,19-3.04,10.63,0,21.33,1.96,32.11,5.89,10.76,3.93,20.52,9.94,29.26,18.05,8.73,8.11,15.82,18.43,21.28,30.97,5.45,12.54,8.17,27.55,8.17,45.03,0,14.44-2.09,27.87-6.27,40.28-4.19,12.41-10.26,23.05-18.24,31.92-7.98,8.87-17.67,15.83-29.07,20.9-11.4,5.06-24.45,7.6-39.13,7.6-6.84,0-13.11-.7-18.81-2.09-5.7-1.4-11.02-3.35-15.95-5.89-4.94-2.53-9.5-5.7-13.68-9.5-4.18-3.8-8.17-7.98-11.97-12.54v112.47h-68.39ZM596.86,224.08c6.33,0,11.97-1.07,16.91-3.23,4.94-2.15,9.18-5,12.73-8.55,3.54-3.54,6.21-7.72,7.97-12.54,1.78-4.81,2.66-9.88,2.66-15.2s-.88-10.38-2.66-15.2c-1.77-4.81-4.37-8.99-7.79-12.54-3.42-3.54-7.6-6.39-12.54-8.55-4.95-2.15-10.58-3.23-16.91-3.23s-12.35,1.08-17.29,3.23c-4.94,2.16-9.18,5.07-12.72,8.74-3.55,3.67-6.27,7.92-8.17,12.73-1.9,4.81-2.85,9.88-2.85,15.2s.95,10.33,2.85,15.01c1.9,4.69,4.55,8.8,7.97,12.35,3.42,3.55,7.61,6.4,12.54,8.55,4.94,2.16,10.7,3.23,17.29,3.23Z"/>
      <path class="cls-1" d="M736.67,82.35c7.85,0,14.82-3.04,20.9-9.12,6.08-6.08,10.13-14.18,12.16-24.32l8.74-41.42h62.69l-15.2,74.85h71.43v62.32h-65.35v77.89l71.05.38v58.9l-79.03,1.9c-20.77-.25-36.54-5.89-47.31-16.91-10.77-11.02-16.15-26.28-16.15-45.79v-76.37h-42.94v-62.32h19Z"/>
      <path class="cls-1" d="M960.8,90.05c8.61,0,15.45,2.41,20.52,7.22,5.07,4.81,7.6,11.27,7.6,19.38v166.04h-68.4V90.05h40.28ZM921.28,54.34V0h67.26v70.67l-67.26-16.34Z"/>
      <path class="cls-1" d="M1081.22,197.29c2.02,4.94,4.94,9.12,8.74,12.54,3.8,3.42,8.42,6.02,13.87,7.79,5.45,1.78,11.59,2.66,18.43,2.66,11.4,0,21.09-2.85,29.07-8.55,7.98-5.7,13.36-12.98,16.15-21.85l53.57,26.22c-2.28,8.62-5.96,16.97-11.02,25.08-5.07,8.11-11.66,15.2-19.76,21.28-8.11,6.08-17.8,10.96-29.07,14.63-11.27,3.67-24.26,5.51-38.95,5.51-15.45,0-30.02-2.28-43.7-6.84-13.68-4.56-25.65-11.21-35.91-19.95-10.26-8.74-18.43-19.44-24.51-32.11-6.08-12.66-9.12-26.98-9.12-42.94s3.1-28.94,9.31-41.23c6.21-12.28,14.44-22.67,24.7-31.16,10.26-8.48,22.23-15.01,35.91-19.57,13.68-4.56,28.12-6.84,43.32-6.84s27.67,1.84,38.95,5.51c11.27,3.67,20.96,8.55,29.07,14.63,8.1,6.08,14.69,13.18,19.76,21.28,5.06,8.11,8.74,16.6,11.02,25.46l-53.57,25.84c-2.79-8.86-8.17-16.15-16.15-21.85-7.98-5.7-17.66-8.55-29.07-8.55-6.33,0-12.16.76-17.48,2.28-5.32,1.52-10.01,3.87-14.06,7.03-4.06,3.17-7.16,7.03-9.31,11.59-2.16,4.56-3.23,9.75-3.23,15.58s1.01,11.59,3.04,16.53Z"/>
    </g>
    <path class="cls-2" d="M24.88,120.65c45.24-10.99,90.47-21.98,135.71-32.97,20.36-4.95,39.97,10.47,39.97,31.42v125.61c0,17.86-14.48,32.34-32.34,32.34H32.34C14.45,277.06-.03,262.54,0,244.66c.06-30.88.12-61.76.17-92.64.03-14.9,10.23-27.85,24.7-31.36Z"/>
  </g>
</svg>